<?xml version="1.0" encoding="UTF-8"?>
<svg xmlns="http://www.w3.org/2000/svg" xmlns:xlink="http://www.w3.org/1999/xlink" width="15px" height="16px" viewBox="0 0 15 16" version="1.1">
<g id="surface1">
<path style=" stroke:none;fill-rule:nonzero;fill:rgb(0%,0%,0%);fill-opacity:1;" d="M 7.347656 15.789062 C 7.285156 15.777344 7.234375 15.757812 7.171875 15.746094 C 6.910156 15.683594 6.691406 15.539062 6.492188 15.351562 C 6.210938 15.082031 5.925781 14.820312 5.65625 14.550781 C 5.5 14.394531 5.320312 14.34375 5.101562 14.375 C 4.660156 14.445312 4.210938 14.507812 3.773438 14.550781 C 3.25 14.601562 2.738281 14.3125 2.5 13.832031 C 2.382812 13.605469 2.351562 13.363281 2.300781 13.113281 C 2.246094 12.800781 2.195312 12.5 2.144531 12.1875 C 2.113281 12 2.015625 11.867188 1.839844 11.773438 C 1.503906 11.59375 1.160156 11.417969 0.824219 11.242188 C 0.660156 11.148438 0.5 11.054688 0.367188 10.917969 C 0.144531 10.679688 0.0195312 10.398438 0 10.074219 C -0.0195312 9.796875 0.0507812 9.546875 0.175781 9.296875 C 0.335938 8.960938 0.5 8.628906 0.667969 8.296875 C 0.785156 8.078125 0.773438 7.890625 0.667969 7.683594 C 0.5 7.359375 0.34375 7.027344 0.1875 6.703125 C 0.09375 6.515625 0.0195312 6.328125 0.0117188 6.121094 C -0.0195312 5.621094 0.15625 5.195312 0.574219 4.914062 C 0.824219 4.738281 1.117188 4.613281 1.390625 4.457031 C 1.546875 4.375 1.703125 4.289062 1.859375 4.207031 C 2.027344 4.125 2.121094 3.988281 2.152344 3.8125 C 2.207031 3.5 2.257812 3.199219 2.320312 2.886719 C 2.351562 2.730469 2.371094 2.5625 2.414062 2.40625 C 2.582031 1.824219 3.144531 1.398438 3.753906 1.449219 C 4.066406 1.46875 4.378906 1.523438 4.695312 1.5625 C 4.859375 1.585938 5.027344 1.617188 5.195312 1.636719 C 5.371094 1.65625 5.519531 1.605469 5.65625 1.480469 C 5.9375 1.199219 6.230469 0.917969 6.523438 0.648438 C 6.710938 0.472656 6.917969 0.335938 7.171875 0.261719 C 7.597656 0.160156 7.996094 0.222656 8.332031 0.503906 C 8.601562 0.730469 8.855469 0.980469 9.113281 1.230469 C 9.210938 1.3125 9.304688 1.40625 9.386719 1.492188 C 9.511719 1.617188 9.660156 1.667969 9.835938 1.636719 C 10.222656 1.585938 10.609375 1.523438 10.996094 1.46875 C 11.277344 1.429688 11.550781 1.429688 11.824219 1.542969 C 12.210938 1.699219 12.46875 1.980469 12.597656 2.375 C 12.667969 2.59375 12.699219 2.832031 12.742188 3.0625 C 12.785156 3.3125 12.824219 3.5625 12.867188 3.8125 C 12.898438 4.007812 12.992188 4.144531 13.179688 4.238281 C 13.527344 4.414062 13.871094 4.601562 14.214844 4.789062 C 14.382812 4.882812 14.539062 4.976562 14.664062 5.121094 C 14.863281 5.351562 14.980469 5.613281 15.011719 5.914062 C 15.03125 6.195312 14.957031 6.453125 14.84375 6.703125 C 14.675781 7.039062 14.519531 7.378906 14.339844 7.714844 C 14.238281 7.921875 14.238281 8.109375 14.339844 8.316406 C 14.507812 8.640625 14.675781 8.984375 14.832031 9.316406 C 14.917969 9.492188 14.988281 9.671875 15 9.867188 C 15.042969 10.261719 14.925781 10.617188 14.65625 10.917969 C 14.53125 11.066406 14.371094 11.160156 14.207031 11.253906 C 13.871094 11.429688 13.546875 11.605469 13.203125 11.773438 C 12.992188 11.875 12.878906 12.03125 12.847656 12.261719 C 12.792969 12.636719 12.722656 13 12.660156 13.363281 C 12.605469 13.636719 12.523438 13.886719 12.335938 14.09375 C 12.050781 14.40625 11.707031 14.582031 11.289062 14.5625 C 10.964844 14.539062 10.640625 14.488281 10.316406 14.445312 C 10.148438 14.425781 9.984375 14.394531 9.816406 14.375 C 9.636719 14.351562 9.5 14.40625 9.375 14.53125 C 9.09375 14.8125 8.800781 15.082031 8.519531 15.351562 C 8.394531 15.464844 8.277344 15.582031 8.113281 15.644531 C 7.976562 15.695312 7.839844 15.726562 7.703125 15.777344 C 7.683594 15.777344 7.671875 15.789062 7.652344 15.800781 L 7.347656 15.800781 Z M 11.257812 13.65625 C 11.519531 13.65625 11.707031 13.519531 11.75 13.28125 C 11.8125 12.9375 11.875 12.59375 11.9375 12.25 C 11.957031 12.148438 11.96875 12.054688 11.988281 11.949219 C 12.074219 11.523438 12.3125 11.210938 12.691406 11.003906 C 13.015625 10.824219 13.339844 10.660156 13.660156 10.492188 C 13.746094 10.449219 13.828125 10.410156 13.902344 10.355469 C 14.082031 10.242188 14.152344 10.023438 14.082031 9.828125 C 14.070312 9.785156 14.046875 9.742188 14.027344 9.703125 C 13.839844 9.304688 13.640625 8.921875 13.464844 8.527344 C 13.304688 8.171875 13.304688 7.816406 13.464844 7.464844 C 13.535156 7.296875 13.621094 7.132812 13.703125 6.976562 C 13.820312 6.746094 13.921875 6.507812 14.046875 6.277344 C 14.207031 5.988281 14.101562 5.707031 13.828125 5.582031 C 13.828125 5.582031 13.808594 5.582031 13.796875 5.570312 C 13.441406 5.382812 13.097656 5.195312 12.742188 5.019531 C 12.304688 4.789062 12.050781 4.414062 11.980469 3.925781 C 11.917969 3.539062 11.84375 3.144531 11.769531 2.761719 C 11.71875 2.457031 11.5 2.3125 11.195312 2.355469 C 10.808594 2.40625 10.421875 2.46875 10.035156 2.519531 C 9.910156 2.542969 9.785156 2.550781 9.660156 2.542969 C 9.304688 2.519531 9 2.375 8.75 2.125 C 8.457031 1.84375 8.164062 1.574219 7.882812 1.28125 C 7.671875 1.0625 7.359375 1.074219 7.148438 1.28125 C 6.878906 1.5625 6.585938 1.824219 6.304688 2.09375 C 6.242188 2.144531 6.1875 2.207031 6.113281 2.25 C 5.875 2.449219 5.59375 2.542969 5.277344 2.53125 C 5.101562 2.53125 4.914062 2.488281 4.734375 2.46875 C 4.421875 2.425781 4.109375 2.375 3.792969 2.332031 C 3.5 2.292969 3.304688 2.449219 3.25 2.738281 C 3.175781 3.125 3.105469 3.519531 3.042969 3.90625 C 2.96875 4.40625 2.71875 4.769531 2.269531 4.996094 C 2.226562 5.019531 2.175781 5.050781 2.132812 5.070312 C 1.808594 5.238281 1.496094 5.414062 1.171875 5.582031 C 1.046875 5.644531 0.953125 5.746094 0.910156 5.882812 C 0.867188 6.015625 0.910156 6.132812 0.960938 6.246094 C 1.140625 6.609375 1.304688 6.964844 1.496094 7.328125 C 1.714844 7.777344 1.714844 8.214844 1.496094 8.652344 C 1.339844 8.960938 1.191406 9.265625 1.035156 9.578125 C 0.992188 9.660156 0.953125 9.742188 0.917969 9.828125 C 0.847656 10.011719 0.917969 10.222656 1.078125 10.335938 C 1.117188 10.367188 1.160156 10.386719 1.210938 10.410156 C 1.566406 10.597656 1.914062 10.785156 2.269531 10.960938 C 2.71875 11.191406 2.96875 11.5625 3.042969 12.0625 C 3.105469 12.449219 3.1875 12.84375 3.25 13.230469 C 3.28125 13.457031 3.480469 13.675781 3.804688 13.636719 C 4.191406 13.582031 4.566406 13.53125 4.953125 13.46875 C 5.175781 13.4375 5.394531 13.425781 5.625 13.480469 C 5.886719 13.542969 6.105469 13.6875 6.304688 13.875 C 6.585938 14.144531 6.878906 14.425781 7.160156 14.695312 C 7.242188 14.78125 7.328125 14.84375 7.453125 14.851562 C 7.621094 14.875 7.757812 14.820312 7.871094 14.707031 C 8.152344 14.425781 8.445312 14.15625 8.726562 13.886719 C 8.789062 13.824219 8.863281 13.761719 8.9375 13.707031 C 9.199219 13.511719 9.5 13.417969 9.824219 13.4375 C 10.140625 13.46875 10.453125 13.519531 10.765625 13.5625 C 10.945312 13.582031 11.132812 13.613281 11.289062 13.636719 Z M 11.257812 13.65625 "/>
<path style=" stroke:none;fill-rule:nonzero;fill:rgb(0%,0%,0%);fill-opacity:1;" d="M 10.921875 5.039062 C 10.921875 5.132812 10.890625 5.226562 10.828125 5.308594 C 10.789062 5.351562 10.746094 5.402344 10.703125 5.445312 C 8.78125 7.359375 6.855469 9.273438 4.933594 11.191406 C 4.890625 11.230469 4.851562 11.273438 4.796875 11.316406 C 4.621094 11.460938 4.359375 11.449219 4.203125 11.285156 C 4.035156 11.117188 4.023438 10.867188 4.171875 10.691406 C 4.203125 10.648438 4.242188 10.617188 4.273438 10.574219 C 6.210938 8.652344 8.152344 6.714844 10.085938 4.789062 C 10.203125 4.675781 10.304688 4.582031 10.484375 4.59375 C 10.734375 4.59375 10.933594 4.789062 10.933594 5.050781 Z M 10.921875 5.039062 "/>
<path style=" stroke:none;fill-rule:nonzero;fill:rgb(0%,0%,0%);fill-opacity:1;" d="M 9.3125 8.753906 C 10.191406 8.734375 10.964844 9.492188 10.964844 10.398438 C 10.964844 11.285156 10.222656 12.054688 9.304688 12.042969 C 8.394531 12.042969 7.660156 11.273438 7.660156 10.386719 C 7.660156 9.492188 8.433594 8.734375 9.324219 8.753906 Z M 9.304688 11.136719 C 9.722656 11.136719 10.078125 10.804688 10.054688 10.386719 C 10.046875 9.941406 9.710938 9.648438 9.304688 9.648438 C 8.894531 9.648438 8.5625 9.960938 8.550781 10.386719 C 8.550781 10.804688 8.875 11.128906 9.292969 11.136719 Z M 9.304688 11.136719 "/>
<path style=" stroke:none;fill-rule:nonzero;fill:rgb(0%,0%,0%);fill-opacity:1;" d="M 5.695312 7.246094 C 4.820312 7.257812 4.046875 6.496094 4.046875 5.601562 C 4.046875 4.714844 4.789062 3.945312 5.707031 3.957031 C 6.617188 3.957031 7.347656 4.726562 7.347656 5.613281 C 7.347656 6.507812 6.585938 7.265625 5.6875 7.246094 Z M 6.449219 5.621094 C 6.46875 5.226562 6.144531 4.882812 5.738281 4.851562 C 5.394531 4.832031 4.964844 5.070312 4.953125 5.582031 C 4.945312 6.027344 5.289062 6.328125 5.6875 6.339844 C 6.09375 6.359375 6.4375 6.027344 6.449219 5.613281 Z M 6.449219 5.621094 "/>
</g>
</svg>
