<svg xmlns="http://www.w3.org/2000/svg" viewBox="0 0 15 15"><path d="M9.629 14.5H5.87a.78.78 0 0 1-.778-.778V6.88c0-.429.349-.778.778-.778h3.759a.78.78 0 0 1 .778.778v6.842a.779.779 0 0 1-.778.778Zm-3.537-1h3.315V7.102H6.092V13.5Z"/><path d="M9.747 9.567H5.753a.662.662 0 0 1-.661-.66V6.761a.66.66 0 0 1 .661-.66h3.994c.364 0 .661.296.661.66v2.146a.66.66 0 0 1-.661.66Zm-3.655-1h3.315V7.101H6.092v1.466Z"/><path d="M8.849 7.102H6.651a1.08 1.08 0 0 1-1.079-1.08V3.195c0-.342.165-.667.44-.87L8.21.71a1.077 1.077 0 0 1 1.718.87v4.441a1.08 1.08 0 0 1-1.079 1.08Zm-.343-5.988.296.403-2.198 1.615-.032 2.89c0 .044.036.08.079.08h2.198a.08.08 0 0 0 .079-.08V1.58l-.422-.467Z"/></svg>