<svg xmlns="http://www.w3.org/2000/svg" id="Group_35822" width="41.275" height="36.178" data-name="Group 35822" viewBox="0 0 41.275 36.178">
    <defs>
        <style>
            .cls-1{fill:#454b53}.cls-2{fill:#1ac977}
        </style>
    </defs>
    <g id="Group_22656" data-name="Group 22656">
        <path id="Path_21925" d="M3699.319 1128.144a4 4 0 0 1-2.35-.772 4.284 4.284 0 0 1-1.7-2.707l-3.5-18.847a4.159 4.159 0 0 1 3.233-4.9l28.769-5.35a3.98 3.98 0 0 1 3.08.7 4.281 4.281 0 0 1 1.7 2.707l1.5 7.454a1 1 0 0 1-1.956.393l-1.5-7.469a2.309 2.309 0 0 0-.91-1.468 2 2 0 0 0-1.546-.36l-28.769 5.35a2.162 2.162 0 0 0-1.637 2.575l3.5 18.847a2.3 2.3 0 0 0 .907 1.454 2 2 0 0 0 1.546.36l7.745-1.479a1 1 0 0 1 .375 1.959l-7.75 1.48a3.984 3.984 0 0 1-.737.073z" class="cls-1" data-name="Path 21925" transform="translate(-3691.689 -1095.5)"/>
        <path id="Path_21926" d="M3706.828 1114.165a1 1 0 0 1-.181-1.978l29.476-5.482a1 1 0 0 1 .365 1.961l-29.477 5.482a1 1 0 0 1-.183.017z" class="cls-1" data-name="Path 21926" transform="translate(-3700.189 -1102.224)"/>
        <path id="Path_21927" d="M3695.584 1124.224a1 1 0 0 1-.181-1.978l34.543-6.424a1 1 0 1 1 .364 1.961l-34.542 6.424a1.064 1.064 0 0 1-.184.017z" class="cls-1" data-name="Path 21927" transform="translate(-3693.431 -1107.703)"/>
        <path id="Path_21928" d="M3711.386 1147.668a1 1 0 0 1-.181-1.979l6.151-1.143a1 1 0 0 1 .365 1.961l-6.151 1.144a1 1 0 0 1-.184.017z" class="cls-1" data-name="Path 21928" transform="translate(-3702.929 -1124.967)"/>
    </g>
    <path id="Path_21929" d="M3767.261 1134.917c-3.458 0-6.946-.911-6.946-2.946s3.489-2.946 6.946-2.946 6.947.911 6.947 2.946-3.489 2.946-6.947 2.946zm-4.838-2.946a12.787 12.787 0 0 0 9.677 0 12.783 12.783 0 0 0-9.677 0zm9.821.135z" class="cls-1" data-name="Path 21929" transform="translate(-3732.934 -1115.649)"/>
    <path id="Path_21930" d="M3772.936 1150.232a18.144 18.144 0 0 1-2.311-.143 1 1 0 1 1 .256-1.978 16.161 16.161 0 0 0 2.055.127c2.951 0 4.661-.717 4.956-1.053a1 1 0 0 1 1.99.1c0 2.037-3.489 2.947-6.946 2.947z" class="cls-1" data-name="Path 21930" transform="translate(-3738.608 -1126.024)"/>
    <path id="Path_21931" d="M3776.224 1162.76a1 1 0 1 1 0-1.995c2.95 0 4.661-.717 4.956-1.054a1 1 0 0 1 1.99.1c0 2.038-3.488 2.949-6.946 2.949z" class="cls-1" data-name="Path 21931" transform="translate(-3741.896 -1133.554)"/>
    <path id="Path_21932" d="M3761.313 1140.713a1 1 0 0 1-1-1v-4.809a1 1 0 1 1 1.995 0v4.809a1 1 0 0 1-.995 1z" class="cls-1" data-name="Path 21932" transform="translate(-3732.934 -1118.584)"/>
    <path id="Path_21933" d="M3776.224 1152.864a1 1 0 1 1 0-1.995c2.934 0 4.641-.709 4.951-1.048v-14.914a1 1 0 1 1 2 0v15.011c-.005 2.035-3.493 2.946-6.951 2.946z" class="cls-1" data-name="Path 21933" transform="translate(-3741.896 -1118.584)"/>
    <path id="Path_21934" d="M3745.9 1166.089a6.667 6.667 0 1 1 6.667-6.667 6.675 6.675 0 0 1-6.667 6.667zm0-11.339a4.672 4.672 0 1 0 4.671 4.672 4.678 4.678 0 0 0-4.671-4.672z" class="cls-2" data-name="Path 21934" transform="translate(-3720.263 -1129.911)"/>
</svg>