
<svg xmlns="http://www.w3.org/2000/svg" id="Group_35799" width="38.562" height="37.035" data-name="Group 35799" viewBox="0 0 38.562 37.035">
    <defs>
        <style>
            .cls-1{fill:#454b53}.cls-2{fill:#1ac977}
        </style>
    </defs>
    <path id="Path_21915" d="M3253.717 1136.32a1.037 1.037 0 0 1-.736-.3l-5.914-5.914a9.4 9.4 0 1 1 13.3 0l-5.914 5.914a1.039 1.039 0 0 1-.736.3zm0-20.188a7.32 7.32 0 0 0-5.178 12.5l5.178 5.178 5.178-5.178a7.32 7.32 0 0 0-5.178-12.5z" class="cls-1" data-name="Path 21915" transform="translate(-3224.554 -1106.685)"/>
    <path id="Path_21916" d="M3262 1134.845a3.494 3.494 0 1 1 3.494-3.493 3.5 3.5 0 0 1-3.494 3.493zm0-4.906a1.412 1.412 0 1 0 1.412 1.412 1.414 1.414 0 0 0-1.412-1.411z" class="cls-2" data-name="Path 21916" transform="translate(-3232.835 -1114.744)"/>
    <g id="Group_22653" data-name="Group 22653">
        <g id="Group_22652" data-name="Group 22652" transform="translate(6.256 8.353)">
            <path id="Path_21917" d="M3222.216 1118.5h-9.3a1.041 1.041 0 1 1 0-2.081h9.3a1.041 1.041 0 1 1 0 2.081z" class="cls-2" data-name="Path 21917" transform="translate(-3211.87 -1116.421)"/>
            <path id="Path_21918" d="M3218.943 1140.419h-6.031a1.041 1.041 0 1 1 0-2.082h6.031a1.041 1.041 0 0 1 0 2.082z" class="cls-2" data-name="Path 21918" transform="translate(-3211.87 -1129.214)"/>
            <path id="Path_21919" d="M3224.176 1162.333h-11.265a1.041 1.041 0 1 1 0-2.082h11.265a1.041 1.041 0 0 1 0 2.082z" class="cls-2" data-name="Path 21919" transform="translate(-3211.87 -1142.005)"/>
        </g>
        <path id="Path_21920" d="M3222.773 1133.39h-21.657a4.278 4.278 0 0 1-4.273-4.273v-28.489a4.278 4.278 0 0 1 4.273-4.273h21.657a4.278 4.278 0 0 1 4.273 4.273 1.041 1.041 0 1 1-2.081 0 2.194 2.194 0 0 0-2.192-2.192h-21.657a2.194 2.194 0 0 0-2.191 2.192v28.489a2.194 2.194 0 0 0 2.191 2.192h21.657a2.194 2.194 0 0 0 2.192-2.192 1.041 1.041 0 1 1 2.081 0 4.278 4.278 0 0 1-4.273 4.273z" class="cls-1" data-name="Path 21920" transform="translate(-3196.843 -1096.355)"/>
    </g>
</svg>