<svg xmlns="http://www.w3.org/2000/svg" id="Group_35756" width="32.696" height="36.259" data-name="Group 35756" viewBox="0 0 32.696 36.259">
    <defs>
        <style>
            .cls-1{fill:#464b52}.cls-2{fill:#1ac977}
        </style>
    </defs>
    <path id="Path_21921" d="M3493.333 1143.333h-23.595a4.547 4.547 0 0 1-4.55-4.533.855.855 0 0 1 0-.09l.546-6.238v-.03l1.2-13.677a4.548 4.548 0 0 1 4.55-4.485h20.092a4.546 4.546 0 0 1 4.55 4.486l.735 8.569a1.028 1.028 0 0 1-2.049.175l-.739-8.61v-.088a2.488 2.488 0 0 0-2.495-2.476h-20.088a2.489 2.489 0 0 0-2.495 2.476v.09l-1.106 12.617h28.4a1.029 1.029 0 0 1 1.023.934l.574 6.25v.094a4.546 4.546 0 0 1-4.553 4.536zm-26.089-4.491a2.489 2.489 0 0 0 2.494 2.435h23.595a2.488 2.488 0 0 0 2.494-2.433l-.483-5.264h-27.637z" class="cls-1" data-name="Path 21921" transform="translate(-3465.187 -1107.074)"/>
    <path id="Path_21922" d="M3494.162 1137.32a7.718 7.718 0 0 1-7.5-5.838 1.028 1.028 0 0 1 1.994-.5 5.676 5.676 0 0 0 10.992.049 1.028 1.028 0 1 1 1.99.52 7.731 7.731 0 0 1-7.476 5.769z" class="cls-2" data-name="Path 21922" transform="translate(-3477.813 -1116.447)"/>
    <path id="Path_21923" d="M3489.024 1106.4a1.029 1.029 0 0 1-.517-1.917l11.938-6.941a1.029 1.029 0 0 1 1.366.308l2.718 3.973a1.028 1.028 0 1 1-1.7 1.161l-2.179-3.184-11.112 6.462a1.029 1.029 0 0 1-.514.138z" class="cls-1" data-name="Path 21923" transform="translate(-3478.615 -1097.138)"/>
    <path id="Path_21924" d="M3477.436 1106.021a1.028 1.028 0 0 1-.806-1.667l5.708-7.207a1.028 1.028 0 0 1 1.2-.309l3.731 1.571a1.028 1.028 0 0 1-.8 1.9l-3.011-1.267-5.222 6.594a1.026 1.026 0 0 1-.8.385z" class="cls-1" data-name="Path 21924" transform="translate(-3471.793 -1096.758)"/>
</svg>