<svg id="icons-" xmlns="http://www.w3.org/2000/svg" viewBox="0 0 15 15"><defs><style>.cls-1{stroke-miterlimit:10;fill:none;stroke:#000;stroke-linecap:round}</style></defs><path d="M7.46 2.88c2.55 0 4.62 2.07 4.62 4.62s-2.07 4.62-4.62 4.62-4.62-2.07-4.62-4.62 2.07-4.62 4.62-4.62m0-1c-3.09 0-5.61 2.52-5.61 5.62s2.52 5.62 5.62 5.62 5.62-2.52 5.62-5.62-2.53-5.62-5.63-5.62Z"/><path d="M12.65 6.92h1.15v1.12h-1.15z"/><path class="cls-1" d="M4.94 2.88V1.62c0-.58.47-1.05 1.05-1.05h2.96c.58 0 1.05.47 1.05 1.05v1.26M4.94 12.12v1.26c0 .58.47 1.05 1.05 1.05h2.96c.58 0 1.05-.47 1.05-1.05v-1.26"/><path style="stroke-linejoin:round;fill:none;stroke:#000;stroke-linecap:round" d="M8.62 6.35 7.46 7.5l2.31 1.15"/></svg>