<svg xmlns="http://www.w3.org/2000/svg" viewBox="0 0 15 15"><path d="m8.338 9.445-.521-.546.16-.386 2.02-3.614.132-.094 3.821-2.136.289.095c.164.07.283.208.328.379.704 2.612-3.877 5.442-5.905 6.182l-.324.12Zm-.019-1.06h-.002.002Zm2.431-2.783L9.492 7.853c1.757-.93 3.795-2.542 4.105-3.842L10.75 5.602Z"/><path d="M3.112 13.522a1.515 1.515 0 0 1-1.275-.668 6.513 6.513 0 0 1 1.047-8.436 1.808 1.808 0 0 1 .497-.417c2.142-1.638 4.789-1.68 6.963-.043a1.58 1.58 0 0 1 .394 2.081L9.086 8.791l-.219-.131a1.57 1.57 0 0 1-.485.779l-4.21 3.685a1.604 1.604 0 0 1-1.059.397Zm-1.079-6.04a5.504 5.504 0 0 0 .634 4.815.513.513 0 0 0 .364.22.604.604 0 0 0 .48-.145l.274-.24c-1.198-1.358-1.725-3.107-1.753-4.65Zm1.575-2.371c-.824 1.045-.96 4.228.93 6.363l3.184-2.786a.6.6 0 0 0 .132-.721c-.992-1.995-2.364-3.04-3.284-3.19-.25-.041-.468-.019-.647.067a5.942 5.942 0 0 0-.315.267Zm1.835-1.113c1.212.504 2.417 1.764 3.275 3.461l1.161-1.934a.59.59 0 0 0-.138-.768c-1.346-1.014-2.87-1.259-4.298-.76Z"/><path d="M2 5.999a1 1 0 1 1 .002-1.998A1 1 0 0 1 2 5.999ZM2 5l-.353.354L2.001 5Z"/></svg>