<svg xmlns="http://www.w3.org/2000/svg" viewBox="0 0 15 15"><path d="M7.546 3.786c-.738 0-1.327-.221-1.75-.656-.635-.653-.629-1.523-.626-1.621a.5.5 0 0 1 .49-.485s1.187-.023 1.822-.023 1.779.023 1.779.023a.5.5 0 0 1 .486.438c.012.099.104.984-.487 1.655-.392.444-.968.67-1.713.67ZM6.259 2.013c.051.144.132.297.26.426.228.23.573.348 1.027.348.445 0 .77-.111.963-.331a.987.987 0 0 0 .213-.441c-.38-.007-.889-.014-1.24-.014-.339 0-.836.007-1.223.013Z"/><path d="M11.971 14.5H2.959a.5.5 0 0 1-.5-.5V6.046c0-.077.018-.154.053-.224l.697-1.396a3.67 3.67 0 0 0 .386-1.636V1.5a.5.5 0 0 1 .5-.5h6.818a.5.5 0 0 1 .5.5v1.354c0 .529.118 1.062.341 1.542l.669 1.439a.51.51 0 0 1 .046.211V14a.5.5 0 0 1-.5.5Zm-8.511-1h8.011V6.156l-.623-1.339a4.687 4.687 0 0 1-.434-1.964v-.854H4.596v.791c0 .72-.17 1.439-.492 2.083l-.645 1.29v7.336Z"/><path d="M10.062 9.103H8.471a.5.5 0 0 1-.5-.5V6.614a.5.5 0 0 1 .5-.5h1.591a.5.5 0 0 1 .5.5v1.989a.5.5 0 0 1-.5.5Zm-1.091-1h.591v-.989h-.591v.989Z"/><path d="M10.062 11.091H8.471a.5.5 0 0 1-.5-.5V8.603a.5.5 0 0 1 .5-.5h1.591a.5.5 0 0 1 .5.5v1.988a.5.5 0 0 1-.5.5Zm-1.091-1h.591v-.988h-.591v.988ZM6.539 9.103H4.948a.5.5 0 0 1-.5-.5V6.614a.5.5 0 0 1 .5-.5h1.591a.5.5 0 0 1 .5.5v1.989a.5.5 0 0 1-.5.5Zm-1.091-1h.591v-.989h-.591v.989Z"/><path d="M6.539 11.091H4.948a.5.5 0 0 1-.5-.5V8.603a.5.5 0 0 1 .5-.5h1.591a.5.5 0 0 1 .5.5v1.988a.5.5 0 0 1-.5.5Zm-1.091-1h.591v-.988h-.591v.988Z"/></svg>