<svg xmlns="http://www.w3.org/2000/svg" viewBox="0 0 15 15"><path d="M8.088 14.5H6.911A5.919 5.919 0 0 1 .999 8.588V6.912A5.92 5.92 0 0 1 6.912 1h1.177a5.919 5.919 0 0 1 5.912 5.912v1.676A5.919 5.919 0 0 1 8.089 14.5ZM6.912 2A4.917 4.917 0 0 0 2 6.912v1.676A4.917 4.917 0 0 0 6.912 13.5h1.177a4.918 4.918 0 0 0 4.912-4.912V6.912A4.917 4.917 0 0 0 8.089 2H6.912Z"/><path d="M7.808 6.105c-.812 0-1.661-.395-2.09-1.3-.249-.575-.059-1.546.549-1.959.18-.122.826-.461 1.586.3a.5.5 0 0 1-.707.707c-.087-.087-.252-.223-.317-.18-.167.113-.271.557-.201.72.31.653 1.046.826 1.613.646.269-.084.88-.375.733-1.247-.066-.429-.325-.858-.728-1.216-.256-.228-.634-.477-1.884-.554a.5.5 0 0 1-.468-.53c.017-.274.267-.501.53-.468 1.41.087 2.014.385 2.486.804.576.511.95 1.151 1.051 1.804.185 1.104-.373 2.032-1.421 2.361a2.453 2.453 0 0 1-.734.111ZM5 10a1.001 1.001 0 0 1 0-2 1.001 1.001 0 0 1 0 2Zm0-1ZM10 10a1.001 1.001 0 0 1 0-2 1.001 1.001 0 0 1 0 2Zm0-1ZM7.485 12.301a3.424 3.424 0 0 1-2.283-.881.499.499 0 1 1 .672-.74c.442.4 1.039.642 1.636.621a2.424 2.424 0 0 0 1.622-.656.5.5 0 0 1 .687.727 3.43 3.43 0 0 1-2.299.93h-.035Z"/></svg>