<svg xmlns="http://www.w3.org/2000/svg" viewBox="0 0 15 15"><path d="M10.99 14H4.01c-.833 0-1.51-.678-1.51-1.51V4.01c0-.832.677-1.51 1.51-1.51h.5v1h-.5a.51.51 0 0 0-.51.51v8.48c0 .281.229.51.51.51h6.98a.51.51 0 0 0 .51-.51V4.01a.51.51 0 0 0-.51-.51h-.5v-1h.5c.833 0 1.51.678 1.51 1.51v8.48c0 .832-.677 1.51-1.51 1.51Z"/><path d="M7.27 2.5h.46v1h-.46z"/><path d="M8.002 6H6.998a.88.88 0 0 1-.806-.527l-.328-.745a.875.875 0 0 1 .23-1.02l.828-.72a.886.886 0 0 1 1.154 0l.83.721a.876.876 0 0 1 .229 1.019l-.328.746A.879.879 0 0 1 8.002 6Zm-.11-.928Zm-.784-.002ZM7.077 5h.847l.261-.594-.684-.594-.684.594.261.594Zm1.175-.535Zm-1.501-.002Z"/><path d="M7.5 12.747a.871.871 0 0 1-.704-.353l-1.101-1.468a.885.885 0 0 1-.167-.658l.678-4.52a.885.885 0 0 1 .87-.749h.846c.432 0 .806.322.87.749l.678 4.52a.883.883 0 0 1-.167.659l-1.101 1.467a.871.871 0 0 1-.704.353Zm.094-.956.002.004-.002-.004ZM7.181 6l-.663 4.417.98 1.252 1.007-1.342L7.82 6h-.64Zm.623-.103v.002-.002ZM9.22 4.77a.494.494 0 0 1-.273-.081L7.229 3.571a.501.501 0 0 1-.004-.838l2.51-1.65a.498.498 0 0 1 .275-.082h.49a.5.5 0 0 1 .5.5v1.49c0 .133-.053.26-.146.354l-1.28 1.279a.499.499 0 0 1-.354.146Zm-.805-1.622.739.481.847-.846v-.679L8.416 3.147Z"/><path d="M5.78 4.77a.503.503 0 0 1-.354-.146l-1.28-1.279A.5.5 0 0 1 4 2.991V1.5a.5.5 0 0 1 .5-.5h.49c.098 0 .193.028.275.082l2.51 1.65a.5.5 0 0 1-.004.838L6.053 4.688a.492.492 0 0 1-.273.081ZM5 2.784l.847.846.739-.481-1.585-1.043v.679Z"/><path d="M7.5 3.65a.503.503 0 0 1-.241-.062l-3-1.65a.504.504 0 0 1-.255-.501.503.503 0 0 1 .371-.422c1.717-.44 4.46-.442 6.245 0a.501.501 0 0 1 .121.924l-3 1.65a.503.503 0 0 1-.241.062ZM6 1.754l1.5.826 1.494-.822a15.774 15.774 0 0 0-2.995-.004Z"/></svg>