<svg xmlns="http://www.w3.org/2000/svg" viewBox="0 0 15 15"><path d="M12.047 14H2.953A1.955 1.955 0 0 1 1 12.048V2.952C1 1.876 1.876 1 2.953 1h9.094C13.124 1 14 1.876 14 2.952v9.096A1.955 1.955 0 0 1 12.047 14ZM2.953 2A.954.954 0 0 0 2 2.952v9.096c0 .525.427.952.953.952h9.094a.954.954 0 0 0 .953-.952V2.952A.953.953 0 0 0 12.047 2H2.953Z"/><path d="M5.888 11.745a.5.5 0 0 1-.495-.429l-.277-1.934-1.932-.276a.499.499 0 0 1 0-.99l1.932-.276.277-1.933a.501.501 0 0 1 .99 0L6.66 7.84l1.932.276a.499.499 0 0 1 0 .99l-1.932.276-.277 1.934a.501.501 0 0 1-.495.429ZM9.888 7.968a.5.5 0 0 1-.495-.429l-.179-1.253-1.253-.18a.5.5 0 0 1 0-.99l1.253-.179.179-1.254a.5.5 0 0 1 .99 0l.18 1.254 1.253.179a.5.5 0 0 1 0 .99l-1.253.18-.18 1.253a.501.501 0 0 1-.495.429Z"/></svg>