<svg xmlns="http://www.w3.org/2000/svg" viewBox="0 0 15 15"><path d="M10.372 7.815H4.628l-.107-.355C3.5 4.068 3.5 3.898 3.5 3.815c0-1.103 1.122-2 2.5-2 .549 0 1.076.144 1.5.401A2.905 2.905 0 0 1 9 1.815c1.378 0 2.5.897 2.5 2 0 .082 0 .253-1.021 3.645l-.107.355Zm-5-1h4.256c.374-1.249.841-2.846.876-3.055-.004-.487-.691-.945-1.504-.945-.461 0-.887.144-1.167.393l-.333.296-.333-.296c-.281-.249-.706-.393-1.167-.393-.813 0-1.5.458-1.5 1 .032.159.498 1.752.872 3Z"/><path d="M11.16 14.815H3.84a1.71 1.71 0 0 1-1.431-.771 1.707 1.707 0 0 1-.144-1.618l1.96-4.573A1.71 1.71 0 0 1 5.8 6.815h3.399a1.71 1.71 0 0 1 1.575 1.039l1.96 4.572a1.707 1.707 0 0 1-.144 1.618 1.71 1.71 0 0 1-1.431.771Zm-5.36-7a.714.714 0 0 0-.656.432l-1.96 4.574a.704.704 0 0 0 .06.674c.134.203.352.32.596.32h7.319a.705.705 0 0 0 .596-.32.704.704 0 0 0 .06-.674l-1.96-4.573a.712.712 0 0 0-.656-.433H5.8ZM10.504 3.005a.5.5 0 0 1-.494-.424L9.73.761a.5.5 0 1 1 .988-.152l.28 1.82a.5.5 0 0 1-.495.576ZM4.496 3.005a.5.5 0 0 1-.495-.576l.28-1.82a.5.5 0 1 1 .988.152l-.28 1.82a.5.5 0 0 1-.494.424Z"/></svg>